<svg xmlns="http://www.w3.org/2000/svg" width="549" height="538" viewBox="0 0 549 538" version="1.1"><path d="" stroke="none" fill="#283c7c" fill-rule="evenodd"/><path d="M 245.500 0.657 C 191.078 7.134, 149.331 23.352, 108 54.073 C 91.370 66.434, 66.443 91.359, 54.070 108 C 27.597 143.602, 11.168 181.812, 3.334 226 C 0.187 243.749, -1.023 280.821, 0.942 299.291 C 11.190 395.605, 72.152 479.637, 160.500 519.229 C 170.270 523.607, 195.858 532.689, 203.250 534.401 L 206 535.038 206 508.767 L 206 482.495 280 408.500 L 354 334.505 354 432.320 L 354 530.135 356.250 529.455 C 362.498 527.566, 378.252 521.353, 386.507 517.522 C 463.919 481.593, 520.821 409.297, 537.987 325.063 C 544.914 291.073, 544.700 250.545, 537.408 215.149 C 534.884 202.894, 527.808 179.383, 523.902 170.271 L 521.901 165.603 438.474 249.026 L 355.047 332.449 354.709 231.474 C 354.524 175.939, 354.029 129.359, 353.610 127.965 C 352.908 125.625, 355.779 122.600, 390.925 88.652 C 411.866 68.423, 429 51.438, 429 50.907 C 429 49.422, 409.903 37.363, 396.500 30.383 C 367.354 15.206, 336.373 5.548, 303.959 1.535 C 292.711 0.143, 254.628 -0.430, 245.500 0.657 M 240 96.360 C 223.302 100.906, 210.120 115.162, 206.998 132.053 C 206.364 135.485, 206.081 161.358, 206.243 201.277 L 206.500 265.021 272 201.943 C 308.025 167.250, 340.625 135.766, 344.443 131.980 L 351.387 125.096 348.943 119.822 C 343.966 109.079, 331.043 98.863, 318.888 96.061 C 312.381 94.560, 245.681 94.814, 240 96.360" stroke="none" fill="#243c7c" fill-rule="evenodd"/></svg>